<svg version="1.1" xmlns="http://www.w3.org/2000/svg" xmlns:xlink="http://www.w3.org/1999/xlink" width="800" height="800"><defs/><g transform="scale(2,2)"><g id="background-2b429c39"><rect fill="white" stroke="none" x="0" y="0" width="400" height="400" class="dcg-svg-background"/></g><g id="background-images-2b429c39"/><g id="graphpaper-2b429c39"><g id="grid-2b429c39"><g><path fill="none" stroke="rgb(0,0,0)" class="dcg-svg-minor-gridline" paint-order="fill stroke markers" d=" M 16.5 0 L 16.5 400" stroke-opacity="0.2" stroke-miterlimit="10" stroke-dasharray=""/><path fill="none" stroke="rgb(0,0,0)" class="dcg-svg-minor-gridline" paint-order="fill stroke markers" d=" M 52.5 0 L 52.5 400" stroke-opacity="0.2" stroke-miterlimit="10" stroke-dasharray=""/><path fill="none" stroke="rgb(0,0,0)" class="dcg-svg-minor-gridline" paint-order="fill stroke markers" d=" M 88.5 0 L 88.5 400" stroke-opacity="0.2" stroke-miterlimit="10" stroke-dasharray=""/><path fill="none" stroke="rgb(0,0,0)" class="dcg-svg-minor-gridline" paint-order="fill stroke markers" d=" M 123.5 0 L 123.5 400" stroke-opacity="0.2" stroke-miterlimit="10" stroke-dasharray=""/><path fill="none" stroke="rgb(0,0,0)" class="dcg-svg-minor-gridline" paint-order="fill stroke markers" d=" M 159.5 0 L 159.5 400" stroke-opacity="0.2" stroke-miterlimit="10" stroke-dasharray=""/><path fill="none" stroke="rgb(0,0,0)" class="dcg-svg-minor-gridline" paint-order="fill stroke markers" d=" M 230.5 0 L 230.5 400" stroke-opacity="0.2" stroke-miterlimit="10" stroke-dasharray=""/><path fill="none" stroke="rgb(0,0,0)" class="dcg-svg-minor-gridline" paint-order="fill stroke markers" d=" M 266.5 0 L 266.5 400" stroke-opacity="0.2" stroke-miterlimit="10" stroke-dasharray=""/><path fill="none" stroke="rgb(0,0,0)" class="dcg-svg-minor-gridline" paint-order="fill stroke markers" d=" M 302.5 0 L 302.5 400" stroke-opacity="0.2" stroke-miterlimit="10" stroke-dasharray=""/><path fill="none" stroke="rgb(0,0,0)" class="dcg-svg-minor-gridline" paint-order="fill stroke markers" d=" M 338.5 0 L 338.5 400" stroke-opacity="0.2" stroke-miterlimit="10" stroke-dasharray=""/><path fill="none" stroke="rgb(0,0,0)" class="dcg-svg-minor-gridline" paint-order="fill stroke markers" d=" M 373.5 0 L 373.5 400" stroke-opacity="0.2" stroke-miterlimit="10" stroke-dasharray=""/><path fill="none" stroke="rgb(0,0,0)" class="dcg-svg-minor-gridline" paint-order="fill stroke markers" d=" M 0 393.5 L 400 393.5" stroke-opacity="0.2" stroke-miterlimit="10" stroke-dasharray=""/><path fill="none" stroke="rgb(0,0,0)" class="dcg-svg-minor-gridline" paint-order="fill stroke markers" d=" M 0 327.5 L 400 327.5" stroke-opacity="0.2" stroke-miterlimit="10" stroke-dasharray=""/><path fill="none" stroke="rgb(0,0,0)" class="dcg-svg-minor-gridline" paint-order="fill stroke markers" d=" M 0 260.5 L 400 260.5" stroke-opacity="0.2" stroke-miterlimit="10" stroke-dasharray=""/><path fill="none" stroke="rgb(0,0,0)" class="dcg-svg-minor-gridline" paint-order="fill stroke markers" d=" M 0 127.5 L 400 127.5" stroke-opacity="0.2" stroke-miterlimit="10" stroke-dasharray=""/><path fill="none" stroke="rgb(0,0,0)" class="dcg-svg-minor-gridline" paint-order="fill stroke markers" d=" M 0 60.5 L 400 60.5" stroke-opacity="0.2" stroke-miterlimit="10" stroke-dasharray=""/><path fill="none" stroke="rgb(0,0,0)" class="dcg-svg-major-gridline" paint-order="fill stroke markers" d=" M 52.5 0 L 52.5 400" stroke-opacity="0.2500000000000001" stroke-miterlimit="10" stroke-dasharray=""/><path fill="none" stroke="rgb(0,0,0)" class="dcg-svg-major-gridline" paint-order="fill stroke markers" d=" M 338.5 0 L 338.5 400" stroke-opacity="0.2500000000000001" stroke-miterlimit="10" stroke-dasharray=""/></g></g><g id="axis-2b429c39"><g id="yaxis-2b429c39"><title>Y axis</title><path fill="none" stroke="rgb(0,0,0)" class="dcg-svg-axis-line" paint-order="fill stroke markers" d=" M 195 0 L 195 400" stroke-opacity="0.9" stroke-miterlimit="10" stroke-width="1.5" stroke-dasharray=""/></g><g id="xaxis-2b429c39"><title>X axis</title><path fill="none" stroke="rgb(0,0,0)" class="dcg-svg-axis-line" paint-order="fill stroke markers" d=" M 0 194 L 400 194" stroke-opacity="0.9" stroke-miterlimit="10" stroke-width="1.5" stroke-dasharray=""/></g><g><g class="dcg-svg-axis-value"><text fill="none" stroke="#ffffff" font-family="Arial" font-size="14px" font-style="normal" font-weight="normal" text-decoration="normal" x="186.31186512434584" y="209.56721353700348" text-anchor="middle" stroke-miterlimit="2" stroke-width="3" stroke-dasharray="">0</text><text fill="#000000" stroke="none" font-family="Arial" font-size="14px" font-style="normal" font-weight="normal" text-decoration="normal" x="186.31186512434584" y="209.56721353700348" text-anchor="middle">0</text></g><g class="dcg-svg-axis-value"><text fill="none" stroke="#ffffff" font-family="Arial" font-size="14px" font-style="normal" font-weight="normal" text-decoration="normal" x="49.99510630150627" y="209.56721353700348" text-anchor="middle" stroke-miterlimit="2" stroke-width="3" stroke-dasharray="">-2</text><text fill="#000000" stroke="none" font-family="Arial" font-size="14px" font-style="normal" font-weight="normal" text-decoration="normal" x="49.99510630150627" y="209.56721353700348" text-anchor="middle">-2</text></g><g class="dcg-svg-axis-value"><text fill="none" stroke="#ffffff" font-family="Arial" font-size="14px" font-style="normal" font-weight="normal" text-decoration="normal" x="338.0837020721854" y="209.56721353700348" text-anchor="middle" stroke-miterlimit="2" stroke-width="3" stroke-dasharray="">2</text><text fill="#000000" stroke="none" font-family="Arial" font-size="14px" font-style="normal" font-weight="normal" text-decoration="normal" x="338.0837020721854" y="209.56721353700348" text-anchor="middle">2</text></g></g></g></g><g id="expressions-2b429c39"><g id="sketch-2b429c39"><title>Expression 1</title><path fill="#c74440" stroke="none" paint-order="stroke fill markers" d="" fill-opacity="0.4"/><g><path fill="none" stroke="#c74440" class="dcg-svg-curve" paint-order="fill stroke markers" d=" M 0 325.96857927243605 L 0 325.96857927243605 L 16.015624999999993 325.3368729498991 L 29.101562499999996 324.5674113332425 L 40.13671875000002 323.66511742698503 L 49.80468749999998 322.6176398568454 L 58.30078125 321.4414807439613 L 66.01562499999999 320.1147635999888 L 73.04687499999997 318.64479870611524 L 79.4921875 317.037280814369 L 85.546875 315.262283126244 L 91.2109375 313.33432657863074 L 96.48437499999999 311.2753780847204 L 101.5625 309.0227578471056 L 106.4453125 306.57947046353456 L 111.13281249999999 303.95253153057865 L 115.625 301.15312864660655 L 120.01953124999999 298.126110324023 L 124.31640625 294.8707765318678 L 128.515625 291.38930677867836 L 132.71484375 287.5950472760995 L 136.91406249999997 283.47371500751257 L 141.11328125 279.0133609893307 L 145.3125 274.2050504676415 L 149.60937499999997 268.91931926799714 L 154.00390625 263.1302144711191 L 158.49609375 256.81739283984564 L 163.18359375 249.81837262140823 L 168.1640625 241.94814886230736 L 173.53515625 233.006934170837 L 179.58984375000003 222.4475388215435 L 187.01171875 208.9842014359235 L 202.1484375 180.84061830753896 L 210.7421875 165.2094597550411 L 217.1875 153.97897399374023 L 222.85156249999997 144.590399664952 L 228.02734375 136.47506389857233 L 232.81249999999997 129.40660411283102 L 237.40234374999997 123.04182267107984 L 241.79687499999997 117.34036188357908 L 246.09374999999997 112.14063388491724 L 250.39062499999997 107.30977179516657 L 254.58984374999997 102.93873979931863 L 258.78906249999994 98.90387854464768 L 262.98828125 95.19256714757853 L 267.28515625 91.71443638475148 L 271.58203125 88.54207740979507 L 275.9765625 85.5945019892514 L 280.46875 82.8705281731115 L 285.15625 80.31608235047008 L 290.0390625 77.94170555088499 L 295.11718749999994 75.75388565678287 L 300.39062499999994 73.75522890734788 L 305.95703125 71.91466688378131 L 311.91406249999994 70.21468832257676 L 318.26171874999994 68.67021850372169 L 325.1953125 67.25287832619028 L 332.71484375 65.98389987422479 L 341.01562500000006 64.85050936336847 L 350.29296874999994 63.85143237940093 L 360.83984375 62.98403073058125 L 373.04687499999994 62.248582511156144 L 387.59765625 61.64149457621613 L 399.99999999999994 61.28605012295969" stroke-linecap="round" stroke-linejoin="round" stroke-miterlimit="10" stroke-width="2.5" stroke-opacity="0.9" stroke-dasharray=""/></g></g></g><g id="labels-2b429c39"/></g></svg>